<svg xmlns="http://www.w3.org/2000/svg" viewBox="0 0 800 140" preserveAspectRatio="xMidYMid slice"><defs><linearGradient id="g" x1="0" y1="0" x2="1" y2="1"><stop offset="0" stop-color="#050d24"/><stop offset=".55" stop-color="#12306b"/><stop offset="1" stop-color="#2a6bc4"/></linearGradient></defs><rect width="800" height="140" fill="url(#g)"/><circle cx="331" cy="19" r="1" fill="#fff" opacity="0.9"/><circle cx="49" cy="9" r="1.4" fill="#fff" opacity="0.4"/><circle cx="374" cy="74" r="0.8" fill="#fff" opacity="0.9"/><circle cx="219" cy="4" r="0.8" fill="#fff" opacity="0.6"/><circle cx="428" cy="8" r="0.8" fill="#fff" opacity="0.4"/><circle cx="564" cy="54" r="0.8" fill="#fff" opacity="0.9"/><circle cx="126" cy="28" r="1.4" fill="#fff" opacity="0.9"/><circle cx="596" cy="7" r="1.4" fill="#fff" opacity="0.9"/><circle cx="406" cy="6" r="0.8" fill="#fff" opacity="0.4"/><circle cx="570" cy="109" r="0.8" fill="#fff" opacity="0.6"/><circle cx="429" cy="18" r="1.4" fill="#fff" opacity="0.4"/><circle cx="584" cy="39" r="1.4" fill="#fff" opacity="0.9"/><circle cx="185" cy="13" r="1.4" fill="#fff" opacity="0.9"/><circle cx="654" cy="24" r="1" fill="#fff" opacity="0.4"/><circle cx="560" cy="91" r="0.8" fill="#fff" opacity="0.9"/><circle cx="61" cy="79" r="0.8" fill="#fff" opacity="0.6"/><circle cx="696" cy="68" r="1" fill="#fff" opacity="0.6"/><circle cx="476" cy="74" r="1" fill="#fff" opacity="0.6"/><circle cx="306" cy="31" r="0.8" fill="#fff" opacity="0.9"/><circle cx="798" cy="31" r="0.8" fill="#fff" opacity="0.9"/><circle cx="307" cy="67" r="1" fill="#fff" opacity="0.6"/><circle cx="746" cy="57" r="1" fill="#fff" opacity="0.9"/><circle cx="74" cy="15" r="1.4" fill="#fff" opacity="0.6"/><circle cx="168" cy="96" r="1" fill="#fff" opacity="0.4"/><circle cx="500" cy="53" r="0.8" fill="#fff" opacity="0.9"/><circle cx="79" cy="97" r="1.4" fill="#fff" opacity="0.9"/><circle cx="321" cy="43" r="1.4" fill="#fff" opacity="0.6"/><circle cx="608" cy="63" r="1.4" fill="#fff" opacity="0.6"/><circle cx="70" cy="107" r="0.8" fill="#fff" opacity="0.6"/><circle cx="485" cy="89" r="1.4" fill="#fff" opacity="0.4"/><circle cx="62" cy="93" r="1.4" fill="#fff" opacity="0.6"/><circle cx="662" cy="73" r="1.4" fill="#fff" opacity="0.6"/><circle cx="291" cy="91" r="1" fill="#fff" opacity="0.9"/><circle cx="355" cy="2" r="1" fill="#fff" opacity="0.6"/><circle cx="172" cy="78" r="0.8" fill="#fff" opacity="0.6"/><circle cx="60" cy="27" r="1" fill="#fff" opacity="0.4"/><circle cx="756" cy="31" r="1" fill="#fff" opacity="0.6"/><circle cx="508" cy="10" r="0.8" fill="#fff" opacity="0.6"/><circle cx="411" cy="70" r="1" fill="#fff" opacity="0.4"/><circle cx="440" cy="110" r="1.4" fill="#fff" opacity="0.6"/><circle cx="723" cy="53" r="1" fill="#fff" opacity="0.9"/><circle cx="389" cy="29" r="0.8" fill="#fff" opacity="0.4"/><circle cx="180" cy="19" r="0.8" fill="#fff" opacity="0.9"/><circle cx="238" cy="1" r="1" fill="#fff" opacity="0.9"/><circle cx="186" cy="33" r="1" fill="#fff" opacity="0.4"/><circle cx="149" cy="53" r="1.4" fill="#fff" opacity="0.6"/><circle cx="624" cy="72" r="1" fill="#fff" opacity="0.4"/><circle cx="707" cy="109" r="1.4" fill="#fff" opacity="0.9"/><circle cx="670" cy="86" r="1.4" fill="#fff" opacity="0.4"/><circle cx="467" cy="99" r="1.4" fill="#fff" opacity="0.9"/><circle cx="401" cy="50" r="1" fill="#fff" opacity="0.6"/><circle cx="106" cy="61" r="1.4" fill="#fff" opacity="0.6"/><circle cx="63" cy="24" r="0.8" fill="#fff" opacity="0.4"/><circle cx="451" cy="20" r="0.8" fill="#fff" opacity="0.6"/><circle cx="615" cy="6" r="0.8" fill="#fff" opacity="0.4"/><circle cx="580" cy="19" r="1.4" fill="#fff" opacity="0.4"/><circle cx="372" cy="78" r="0.8" fill="#fff" opacity="0.4"/><circle cx="212" cy="78" r="1" fill="#fff" opacity="0.4"/><circle cx="649" cy="32" r="1" fill="#fff" opacity="0.9"/><circle cx="372" cy="60" r="0.8" fill="#fff" opacity="0.4"/><g fill="none" stroke="#9fb0d0" opacity=".25"><ellipse cx="680" cy="120" rx="170" ry="170"/><ellipse cx="680" cy="120" rx="90" ry="170"/><path d="M510 120H850M530 70H830M530 170H830"/></g><g transform="translate(150 120) scale(1.5)" fill="#fff" opacity="0.25"><ellipse cx="0" cy="0" rx="40" ry="12"/><ellipse cx="-22" cy="-8" rx="22" ry="12"/><ellipse cx="10" cy="-12" rx="26" ry="15"/><ellipse cx="34" cy="-4" rx="18" ry="9"/></g><g transform="translate(420 126) scale(2)" fill="#fff" opacity="0.2"><ellipse cx="0" cy="0" rx="40" ry="12"/><ellipse cx="-22" cy="-8" rx="22" ry="12"/><ellipse cx="10" cy="-12" rx="26" ry="15"/><ellipse cx="34" cy="-4" rx="18" ry="9"/></g><path d="M160 112 Q340 100 520 76" stroke="#fff" stroke-width="2" stroke-dasharray="2 9" stroke-linecap="round" fill="none" opacity=".55"/><circle cx="160" cy="112" r="4" fill="#e8c26a"/><g transform="translate(520 76) rotate(-11) scale(0.85)"><g fill="#fff">
<path d="M0 0 C0 -7 10 -10 30 -10 L95 -10 C112 -10 124 -4 132 0 C124 5 112 8 95 8 L30 8 C10 8 0 6 0 0Z"/>
<path d="M6 -8 L-8 -36 L10 -36 L36 -8Z"/><path d="M56 0 L96 0 L44 34 L26 34Z" opacity=".92"/><path d="M60 -6 L92 -6 L52 -28 L42 -28Z" opacity=".75"/></g>
<g fill="#1c4c96" opacity=".55"><circle cx="40" cy="-3" r="2"/><circle cx="52" cy="-3" r="2"/><circle cx="64" cy="-3" r="2"/><circle cx="76" cy="-3" r="2"/><circle cx="88" cy="-3" r="2"/><path d="M108 -7 Q120 -6 126 -1 L108 -1Z"/></g></g></svg>